REM DIRINDEX 1\2\4,1\2\5,1\3\6,1\3\7,1\3\8
REM DIRNAME folder01,folder02,folder03,folder04,folder05,folder06,folder07,folder08
TITLE ""
FILE "LV1_017_WORDS.mp3" MP3
  TRACK 01 AUDIO
    TITLE "0:"
    INDEX 01 00:00:00
  TRACK 02 AUDIO
    TITLE "6:cjc094_0637"
    INDEX 01 00:00:03
  TRACK 03 AUDIO
    TITLE "0:"
    INDEX 01 00:01:73
  TRACK 04 AUDIO
    TITLE "7:cjc094_0638"
    INDEX 01 00:02:53
  TRACK 05 AUDIO
    TITLE "0:"
    INDEX 01 00:03:59
  TRACK 06 AUDIO
    TITLE "8:cjc094_0639"
    INDEX 01 00:03:72
  TRACK 07 AUDIO
    TITLE "0:"
    INDEX 01 00:06:08
  TRACK 08 AUDIO
    TITLE "7:cjc094_0640"
    INDEX 01 00:06:55
  TRACK 09 AUDIO
    TITLE "0:"
    INDEX 01 00:07:58
  TRACK 10 AUDIO
    TITLE "8:cjc094_0641"
    INDEX 01 00:07:68
  TRACK 11 AUDIO
    TITLE "0:"
    INDEX 01 00:10:35
  TRACK 12 AUDIO
    TITLE "7:cjc094_0642"
    INDEX 01 00:11:05
  TRACK 13 AUDIO
    TITLE "0:"
    INDEX 01 00:12:16
  TRACK 14 AUDIO
    TITLE "8:cjc094_0643"
    INDEX 01 00:12:22
  TRACK 15 AUDIO
    TITLE "0:"
    INDEX 01 00:13:16
  TRACK 16 AUDIO
    TITLE "7:cjc094_0644"
    INDEX 01 00:13:69
  TRACK 17 AUDIO
    TITLE "0:"
    INDEX 01 00:14:74
  TRACK 18 AUDIO
    TITLE "8:cjc094_0645"
    INDEX 01 00:15:13
  TRACK 19 AUDIO
    TITLE "0:"
    INDEX 01 00:19:46
  TRACK 20 AUDIO
    TITLE "7:cjc094_0646"
    INDEX 01 00:20:14
  TRACK 21 AUDIO
    TITLE "0:"
    INDEX 01 00:21:11
  TRACK 22 AUDIO
    TITLE "8:cjc094_0647"
    INDEX 01 00:21:23
  TRACK 23 AUDIO
    TITLE "0:"
    INDEX 01 00:23:59
  TRACK 24 AUDIO
    TITLE "7:cjc094_0648"
    INDEX 01 00:24:29
  TRACK 25 AUDIO
    TITLE "0:"
    INDEX 01 00:25:29
  TRACK 26 AUDIO
    TITLE "8:cjc094_0649"
    INDEX 01 00:25:41
  TRACK 27 AUDIO
    TITLE "0:"
    INDEX 01 00:26:40
  TRACK 28 AUDIO
    TITLE "7:cjc094_0650"
    INDEX 01 00:27:10
  TRACK 29 AUDIO
    TITLE "0:"
    INDEX 01 00:28:02
  TRACK 30 AUDIO
    TITLE "8:cjc094_0651"
    INDEX 01 00:28:13
  TRACK 31 AUDIO
    TITLE "0:"
    INDEX 01 00:30:34
  TRACK 32 AUDIO
    TITLE "7:cjc094_0652"
    INDEX 01 00:31:04
  TRACK 33 AUDIO
    TITLE "0:"
    INDEX 01 00:32:00
  TRACK 34 AUDIO
    TITLE "8:cjc094_0653"
    INDEX 01 00:32:13
  TRACK 35 AUDIO
    TITLE "0:"
    INDEX 01 00:33:17
  TRACK 36 AUDIO
    TITLE "7:cjc094_0654"
    INDEX 01 00:33:66
  TRACK 37 AUDIO
    TITLE "0:"
    INDEX 01 00:34:59
  TRACK 38 AUDIO
    TITLE "8:cjc094_0655"
    INDEX 01 00:34:71
  TRACK 39 AUDIO
    TITLE "0:"
    INDEX 01 00:38:02
  TRACK 40 AUDIO
    TITLE "7:cjc094_0656"
    INDEX 01 00:38:49
  TRACK 41 AUDIO
    TITLE "0:"
    INDEX 01 00:39:51
  TRACK 42 AUDIO
    TITLE "8:cjc094_0657"
    INDEX 01 00:39:66
  TRACK 43 AUDIO
    TITLE "0:"
    INDEX 01 00:41:49
  TRACK 44 AUDIO
    TITLE "7:cjc094_0658"
    INDEX 01 00:42:19
  TRACK 45 AUDIO
    TITLE "0:"
    INDEX 01 00:43:17
  TRACK 46 AUDIO
    TITLE "8:cjc094_0659"
    INDEX 01 00:43:33
  TRACK 47 AUDIO
    TITLE "0:"
    INDEX 01 00:46:19
  TRACK 48 AUDIO
    TITLE "7:cjc094_0660"
    INDEX 01 00:46:66
  TRACK 49 AUDIO
    TITLE "0:"
    INDEX 01 00:47:62
  TRACK 50 AUDIO
    TITLE "8:cjc094_0661"
    INDEX 01 00:48:06
  TRACK 51 AUDIO
    TITLE "0:"
    INDEX 01 00:51:26
  TRACK 52 AUDIO
    TITLE "7:cjc094_0662"
    INDEX 01 00:51:69
  TRACK 53 AUDIO
    TITLE "0:"
    INDEX 01 00:52:65
  TRACK 54 AUDIO
    TITLE "8:cjc094_0663"
    INDEX 01 00:53:04
  TRACK 55 AUDIO
    TITLE "0:"
    INDEX 01 00:54:68
  TRACK 56 AUDIO
    TITLE "7:cjc094_0664"
    INDEX 01 00:55:42
  TRACK 57 AUDIO
    TITLE "0:"
    INDEX 01 00:56:37
  TRACK 58 AUDIO
    TITLE "8:cjc094_0665"
    INDEX 01 00:56:45
  TRACK 59 AUDIO
    TITLE "0:"
    INDEX 01 00:58:38
  TRACK 60 AUDIO
    TITLE "7:cjc094_0666"
    INDEX 01 00:59:06
  TRACK 61 AUDIO
    TITLE "0:"
    INDEX 01 00:59:73
  TRACK 62 AUDIO
    TITLE "8:cjc094_0667"
    INDEX 01 01:00:15
  TRACK 63 AUDIO
    TITLE "0:"
    INDEX 01 01:01:52
  TRACK 64 AUDIO
    TITLE "7:cjc094_0668"
    INDEX 01 01:02:30
  TRACK 65 AUDIO
    TITLE "0:"
    INDEX 01 01:03:37
  TRACK 66 AUDIO
    TITLE "8:cjc094_0669"
    INDEX 01 01:03:53
  TRACK 67 AUDIO
    TITLE "0:"
    INDEX 01 01:06:71
  TRACK 68 AUDIO
    TITLE "7:cjc094_0670"
    INDEX 01 01:07:45
  TRACK 69 AUDIO
    TITLE "0:"
    INDEX 01 01:08:50
  TRACK 70 AUDIO
    TITLE "8:cjc094_0671"
    INDEX 01 01:08:64
  TRACK 71 AUDIO
    TITLE "0:"
    INDEX 01 01:13:53
